<svg width="210" height="34" viewBox="0 0 210 34" fill="none" xmlns="http://www.w3.org/2000/svg">
<path d="M194.278 31.28C193.495 31.28 192.777 31.0951 192.124 30.7251C191.493 30.3335 190.982 29.8112 190.59 29.1584C190.22 28.5056 190.035 27.7984 190.035 27.0368V16.592C190.035 15.8087 190.22 15.1015 190.59 14.4704C190.982 13.8394 191.493 13.328 192.124 12.9363C192.777 12.5447 193.495 12.3488 194.278 12.3488H205.768V6.14722H209.293V31.28H194.278ZM194.409 27.7549H204.984C205.202 27.7549 205.387 27.6787 205.539 27.5264C205.691 27.3523 205.768 27.1565 205.768 26.9389V16.6899C205.768 16.4723 205.691 16.2874 205.539 16.1351C205.387 15.961 205.202 15.8739 204.984 15.8739H194.409C194.191 15.8739 193.995 15.961 193.821 16.1351C193.669 16.2874 193.593 16.4723 193.593 16.6899V26.9389C193.593 27.1565 193.669 27.3523 193.821 27.5264C193.995 27.6787 194.191 27.7549 194.409 27.7549Z" fill="white"/>
<path d="M173.737 31.2801V16.5921C173.737 15.8087 173.933 15.1015 174.325 14.4705C174.716 13.8394 175.228 13.3281 175.859 12.9364C176.512 12.5447 177.219 12.3489 177.98 12.3489H188.556V15.874H178.078C177.861 15.874 177.665 15.961 177.491 16.1351C177.339 16.2874 177.262 16.4724 177.262 16.69V31.2801H173.737Z" fill="white"/>
<path d="M155.732 31.2801C154.948 31.2801 154.23 31.0842 153.577 30.6926C152.946 30.3009 152.435 29.7895 152.043 29.1585C151.673 28.5274 151.489 27.8202 151.489 27.0369V20.0519H167.188V16.69C167.188 16.4724 167.112 16.2874 166.96 16.1351C166.808 15.961 166.623 15.874 166.405 15.874H151.489V12.3489H166.503C167.286 12.3489 167.993 12.5447 168.625 12.9364C169.277 13.3063 169.789 13.8177 170.159 14.4705C170.55 15.1233 170.746 15.8305 170.746 16.5921V31.2801H155.732ZM155.83 27.755H167.188V23.3486H155.014V26.939C155.014 27.1566 155.09 27.3524 155.242 27.5265C155.416 27.6788 155.612 27.755 155.83 27.755Z" fill="white"/>
<path d="M133.61 31.2801C132.826 31.2801 132.119 31.0842 131.488 30.6926C130.857 30.3009 130.346 29.7895 129.954 29.1585C129.562 28.5274 129.367 27.8202 129.367 27.0369V16.5921C129.367 15.8087 129.562 15.1015 129.954 14.4705C130.346 13.8394 130.857 13.3281 131.488 12.9364C132.119 12.5447 132.826 12.3489 133.61 12.3489H144.381C145.164 12.3489 145.871 12.5447 146.503 12.9364C147.155 13.3063 147.667 13.8177 148.037 14.4705C148.428 15.1233 148.624 15.8305 148.624 16.5921V27.0369C148.624 27.8202 148.428 28.5274 148.037 29.1585C147.667 29.7895 147.155 30.3009 146.503 30.6926C145.871 31.0842 145.164 31.2801 144.381 31.2801H133.61ZM133.708 27.755H144.283C144.501 27.755 144.686 27.6788 144.838 27.5265C144.99 27.3524 145.066 27.1566 145.066 26.939V16.69C145.066 16.4724 144.99 16.2874 144.838 16.1351C144.686 15.961 144.501 15.874 144.283 15.874H133.708C133.49 15.874 133.294 15.961 133.12 16.1351C132.968 16.2874 132.892 16.4724 132.892 16.69V26.939C132.892 27.1566 132.968 27.3524 133.12 27.5265C133.294 27.6788 133.49 27.755 133.708 27.755Z" fill="white"/>
<path d="M107.694 31.28V6.14722H111.219V12.3488H122.708C123.492 12.3488 124.199 12.5447 124.83 12.9363C125.483 13.328 125.994 13.8394 126.364 14.4704C126.756 15.1015 126.951 15.8087 126.951 16.592V27.0368C126.951 27.8202 126.756 28.5274 126.364 29.1584C125.994 29.7895 125.483 30.3008 124.83 30.6925C124.199 31.0842 123.492 31.28 122.708 31.28H107.694ZM112.035 27.7549H122.61C122.828 27.7549 123.013 27.6787 123.165 27.5264C123.339 27.3523 123.426 27.1565 123.426 26.9389V16.6899C123.426 16.4723 123.339 16.2874 123.165 16.1351C123.013 15.961 122.828 15.8739 122.61 15.8739H112.035C111.817 15.8739 111.622 15.961 111.447 16.1351C111.295 16.2874 111.219 16.4723 111.219 16.6899V26.9389C111.219 27.1565 111.295 27.3523 111.447 27.5264C111.622 27.6787 111.817 27.7549 112.035 27.7549Z" fill="white"/>
<path d="M89.2716 31.2801C88.4882 31.2801 87.781 31.0842 87.15 30.6926C86.5189 30.3009 86.0076 29.7895 85.6159 29.1585C85.2242 28.5274 85.0284 27.8202 85.0284 27.0369V16.5921C85.0284 15.8087 85.2242 15.1015 85.6159 14.4705C86.0076 13.8394 86.5189 13.3281 87.15 12.9364C87.781 12.5447 88.4882 12.3489 89.2716 12.3489H104.221V15.874H89.3695C89.1519 15.874 88.9561 15.961 88.782 16.1351C88.6297 16.2874 88.5535 16.4724 88.5535 16.69V26.939C88.5535 27.1566 88.6297 27.3524 88.782 27.5265C88.9561 27.6788 89.1519 27.755 89.3695 27.755H104.286V31.2801H89.2716Z" fill="white"/>
<path d="M67.3735 31.2801C66.5901 31.2801 65.8829 31.0842 65.2519 30.6926C64.6208 30.3009 64.1095 29.7895 63.7178 29.1585C63.3261 28.5274 63.1303 27.8202 63.1303 27.0369V16.5921C63.1303 15.8087 63.3261 15.1015 63.7178 14.4705C64.1095 13.8394 64.6208 13.3281 65.2519 12.9364C65.8829 12.5447 66.5901 12.3489 67.3735 12.3489H78.1447C78.928 12.3489 79.6352 12.5447 80.2663 12.9364C80.9191 13.3063 81.4304 13.8177 81.8003 14.4705C82.192 15.1233 82.3879 15.8305 82.3879 16.5921V23.577H66.6554V26.939C66.6554 27.1566 66.7315 27.3524 66.8839 27.5265C67.0579 27.6788 67.2538 27.755 67.4714 27.755H82.3879V31.2801H67.3735ZM66.6554 20.2804H78.8301V16.69C78.8301 16.4724 78.7539 16.2874 78.6016 16.1351C78.4493 15.961 78.2643 15.874 78.0467 15.874H67.4714C67.2538 15.874 67.0579 15.961 66.8839 16.1351C66.7315 16.2874 66.6554 16.4724 66.6554 16.69V20.2804Z" fill="white"/>
<path d="M53.5731 31.2799C52.7898 31.2799 52.0717 31.0841 51.4189 30.6924C50.7878 30.3007 50.2765 29.7894 49.8848 29.1583C49.5149 28.5273 49.3299 27.8201 49.3299 27.0367V6.37561H52.855V12.3487H60.6234V15.8738H52.855V26.9388C52.855 27.1564 52.9312 27.3523 53.0835 27.5263C53.2576 27.6786 53.4534 27.7548 53.671 27.7548H60.6234V31.2799H53.5731Z" fill="white"/>
<path d="M0 1.36C0 0.608893 0.608893 0 1.36 0H8.12395C8.87506 0 9.48395 0.608893 9.48395 1.36V8.16C9.48395 8.91111 8.87506 9.52 8.12395 9.52H1.36C0.608892 9.52 0 8.91111 0 8.16V1.36Z" fill="white"/>
<path d="M13.6876 1.36C13.6876 0.608893 14.2965 0 15.0476 0H21.8115C22.5627 0 23.1715 0.608893 23.1715 1.36V8.16C23.1715 8.91111 22.5627 9.52 21.8115 9.52H15.0476C14.2965 9.52 13.6876 8.91111 13.6876 8.16V1.36Z" fill="white"/>
<path d="M10.9779 32.64C10.9779 33.3911 11.5868 34 12.3379 34H19.1018C19.8529 34 20.4618 33.3911 20.4618 32.64V25.84C20.4618 25.0889 19.8529 24.48 19.1018 24.48H12.3379C11.5868 24.48 10.9779 25.0889 10.9779 25.84V32.64Z" fill="white"/>
<path d="M24.6654 32.64C24.6654 33.3911 25.2743 34 26.0254 34H32.7893C33.5405 34 34.1493 33.3911 34.1493 32.64V25.84C34.1493 25.0889 33.5405 24.48 32.7893 24.48H26.0254C25.2743 24.48 24.6654 25.0889 24.6654 25.84V32.64Z" fill="white"/>
<path fill-rule="evenodd" clip-rule="evenodd" d="M15.0424 28.56L4.20363 5.44002L5.43334 4.85913L16.2721 27.9791L15.0424 28.56Z" fill="white"/>
<path fill-rule="evenodd" clip-rule="evenodd" d="M28.7299 28.56L17.8911 5.44002L19.1208 4.85913L29.9597 27.9791L28.7299 28.56Z" fill="white"/>
<path d="M5.19374 13.6C5.19374 12.8489 5.80263 12.24 6.55374 12.24H13.3177C14.0688 12.24 14.6777 12.8489 14.6777 13.6V20.4C14.6777 21.1511 14.0688 21.76 13.3177 21.76H6.55374C5.80263 21.76 5.19374 21.1511 5.19374 20.4V13.6Z" fill="white"/>
<path d="M18.8812 13.6C18.8812 12.8489 19.4901 12.24 20.2412 12.24H27.0052C27.7563 12.24 28.3652 12.8489 28.3652 13.6V20.4C28.3652 21.1511 27.7563 21.76 27.0052 21.76H20.2412C19.4901 21.76 18.8812 21.1511 18.8812 20.4V13.6Z" fill="white"/>
<path d="M27.2361 1.36C27.2361 0.608893 27.845 0 28.5961 0H35.36C36.1111 0 36.72 0.608893 36.72 1.36V8.16C36.72 8.91111 36.1111 9.52 35.36 9.52H28.5961C27.845 9.52 27.2361 8.91111 27.2361 8.16V1.36Z" fill="white"/>
</svg>
